<mxfile host="app.diagrams.net" modified="2023-05-29T14:04:22.139Z" agent="Mozilla/5.0 (Windows NT 10.0; Win64; x64; rv:109.0) Gecko/20100101 Firefox/113.0" version="21.3.2" etag="vdxr00JQ9S-xwcWGc9KA" type="github">
  <diagram name="Страница 1" id="-aZrXCLZSqljGEitY1ks">
    <mxGraphModel>
      <root>
        <mxCell id="0" />
        <mxCell id="1" parent="0" />
      </root>
    </mxGraphModel>
  </diagram>
</mxfile>
